#!OML:ASF X:\für Bonn\!DataBase\2005_08_11_Bastian_Final\c3d\Bastian.ASF
:FULLY-SPECIFIED
:DEGREES
31
root 2.81885 17.1442 -2.17299 210.548 81.0715 -136.739
lowerback 8.63767 0.213427 6.50556
upperback 10.4012 1.14229 1.07875
thorax 6.21052 1.2432 -2.50348
lowerneck -0.965539 -9.31245 -6.48926
upperneck 6.70878 -13.1873 15.1541
head 3.60379 -6.17932 5.08437
rclavicle -8.34896e-015 9.14409e-015
rhumerus -23.7876 6.11209 -83.1831
rradius 33.5107
rwrist -3.60806
rhand -25.0337 -0.587834
rfingers 7.12502
rthumb 1.47899 -30.5625
lclavicle -8.34896e-015 9.14409e-015
lhumerus -24.6026 4.45203 84.4672
lradius 7.44814
lwrist 8.30296
lhand -11.6885 -5.9566
lfingers 7.12502
lthumb 14.3571 23.5269
rfemur 18.9288 -4.09559 31.3379
rtibia 21.4979
rfoot -17.7483 -5.55044
rtoes 1.78533
lfemur -15.8774 0.436815 -14.4794
ltibia 21.7503
lfoot -5.53945 -5.90363
ltoes -26.7369
32
root 2.93075 17.121 -2.19257 209.97 81.196 -137.217
lowerback 8.86849 0.233592 6.35394
upperback 10.534 1.19394 1.03587
thorax 6.22727 1.27095 -2.46692
lowerneck -0.897284 -9.3969 -6.43937
upperneck 6.7255 -13.3185 15.3771
head 3.62443 -6.23469 5.1385
rclavicle 6.90777e-015 -1.98785e-016
rhumerus -23.3833 6.23258 -83.0256
rradius 33.5054
rwrist -3.62623
rhand -25.0788 -0.502146
rfingers 7.12502
rthumb 1.43547 -30.4771
lclavicle 6.90777e-015 -1.98785e-016
lhumerus -24.3364 4.45725 84.3738
lradius 7.70617
lwrist 8.21832
lhand -11.5362 -6.00749
lfingers 7.12502
lthumb 14.5039 23.4656
rfemur 19.1672 -4.3834 30.9716
rtibia 22.1335
rfoot -18.1115 -5.18851
rtoes 0.800544
lfemur -15.8009 0.374814 -14.7483
ltibia 22.0751
lfoot -4.79694 -6.10887
ltoes -26.3287
33
root 3.04233 17.0969 -2.21224 209.572 81.3421 -137.514
lowerback 9.10149 0.247919 6.18789
upperback 10.6735 1.23663 1.0094
thorax 6.24846 1.29297 -2.40483
lowerneck -0.788753 -9.46085 -6.44459
upperneck 6.69561 -13.4185 15.63
head 3.62685 -6.27932 5.21539
rclavicle 2.50469e-014 -3.97569e-016
rhumerus -22.9518 6.35708 -82.8549
rradius 33.4755
rwrist -3.50711
rhand -25.0957 -0.453206
rfingers 7.12502
rthumb 1.41917 -30.4282
lclavicle 2.50469e-014 -3.97569e-016
lhumerus -24.0557 4.5336 84.2927
lradius 7.94386
lwrist 7.99258
lhand -11.4795 -5.97772
lfingers 7.12502
lthumb 14.5586 23.4914
rfemur 19.3474 -4.61155 30.6225
rtibia 22.9159
rfoot -18.4862 -4.83328
rtoes -0.368094
lfemur -15.7185 0.272851 -14.9699
ltibia 22.5064
lfoot -4.01555 -6.22176
ltoes -24.9632
34
root 3.15295 17.0737 -2.23308 208.955 81.4951 -138.059
lowerback 9.33391 0.245838 5.97685
upperback 10.7856 1.25268 0.984362
thorax 6.23573 1.29561 -2.3164
lowerneck -0.689972 -9.51121 -6.39882
upperneck 6.72524 -13.4996 15.7743
head 3.63548 -6.31434 5.25133
rclavicle -2.60408e-014 1.78906e-015
rhumerus -22.5547 6.44837 -82.6693
rradius 33.4606
rwrist -3.3786
rhand -25.0653 -0.420278
rfingers 7.12502
rthumb 1.44848 -30.3951
lclavicle -2.60408e-014 1.78906e-015
lhumerus -23.8022 4.66918 84.2047
lradius 8.1369
lwrist 7.66106
lhand -11.4911 -5.8984
lfingers 7.12502
lthumb 14.5474 23.5715
rfemur 19.41 -4.83133 30.2331
rtibia 23.8869
rfoot -18.8564 -4.51949
rtoes -1.90677
lfemur -15.66 0.0341328 -15.2097
ltibia 23.0123
lfoot -3.23845 -6.21397
ltoes -23.2693
35
root 3.26163 17.0512 -2.25445 208.391 81.6537 -138.527
lowerback 9.59542 0.246891 5.80209
upperback 10.9168 1.27849 0.950043
thorax 6.23078 1.30782 -2.25836
lowerneck -0.593957 -9.56427 -6.35563
upperneck 6.71623 -13.5824 15.9549
head 3.63618 -6.35059 5.29908
rclavicle -1.86361e-014 1.39149e-015
rhumerus -22.0747 6.46281 -82.4826
rradius 33.3778
rwrist -3.19548
rhand -25.0148 -0.392036
rfingers 7.12502
rthumb 1.49727 -30.3665
lclavicle -1.86361e-014 1.39149e-015
lhumerus -23.5321 4.78821 84.1243
lradius 8.38362
lwrist 7.29383
lhand -11.5085 -5.78889
lfingers 7.12502
lthumb 14.5306 23.6822
rfemur 19.3794 -5.20943 29.7369
rtibia 25.0426
rfoot -19.1419 -4.00461
rtoes -3.74641
lfemur -15.585 -0.15782 -15.4309
ltibia 23.5998
lfoot -2.49459 -6.19468
ltoes -21.1543
36
root 3.36893 17.0301 -2.27592 208.012 81.772 -138.852
lowerback 9.82591 0.24137 5.64558
upperback 11.039 1.29184 0.945722
thorax 6.23241 1.31319 -2.17804
lowerneck -0.553261 -9.63156 -6.33481
upperneck 6.78065 -13.6893 16.088
head 3.66914 -6.39552 5.33003
rclavicle 3.69243e-014 -1.64991e-014
rhumerus -21.6141 6.48937 -82.2707
rradius 33.3037
rwrist -2.94089
rhand -24.9752 -0.342253
rfingers 7.12502
rthumb 1.53553 -30.3165
lclavicle 3.69243e-014 -1.64991e-014
lhumerus -23.3056 4.92989 84.0719
lradius 8.74049
lwrist 6.84924
lhand -11.48 -5.64036
lfingers 7.12502
lthumb 14.558 23.8288
rfemur 19.1274 -5.58603 29.276
rtibia 26.4162
rfoot -19.3348 -3.45538
rtoes -5.82812
lfemur -15.5636 -0.392824 -15.6024
ltibia 24.2291
lfoot -1.68231 -6.03217
ltoes -18.9813
37
root 3.47452 17.0106 -2.29914 207.493 81.8878 -139.3
lowerback 10.0976 0.210741 5.47363
upperback 11.1682 1.27433 0.947051
thorax 6.21591 1.30208 -2.08273
lowerneck -0.527101 -9.68517 -6.29113
upperneck 6.8246 -13.7718 16.1578
head 3.68957 -6.43092 5.33935
rclavicle 3.62285e-014 -1.31198e-014
rhumerus -21.1198 6.5967 -82.0572
rradius 33.2107
rwrist -2.76151
rhand -24.9296 -0.326096
rfingers 7.12502
rthumb 1.57953 -30.3
lclavicle 3.62285e-014 -1.31198e-014
lhumerus -23.0997 5.12868 83.9933
lradius 9.14614
lwrist 6.29548
lhand -11.4291 -5.57284
lfingers 7.12502
lthumb 14.6071 23.8928
rfemur 18.7334 -6.02566 28.747
rtibia 28.0453
rfoot -19.4472 -2.84792
rtoes -8.25856
lfemur -15.51 -0.6545 -15.7906
ltibia 24.8583
lfoot -0.866689 -5.76362
ltoes -17.2699
38
root 3.57699 16.992 -2.32148 206.938 82.0034 -139.774
lowerback 10.4099 0.177771 5.28247
upperback 11.2943 1.2548 0.967918
thorax 6.17265 1.28733 -1.95697
lowerneck -0.493801 -9.73227 -6.30765
upperneck 6.90608 -13.8491 16.2242
head 3.72324 -6.46428 5.35719
rclavicle -1.52567e-014 -9.54166e-015
rhumerus -20.6011 6.71356 -81.8122
rradius 33.075
rwrist -2.56655
rhand -24.8828 -0.34307
rfingers 7.12502
rthumb 1.6248 -30.3166
lclavicle -1.52567e-014 -9.54166e-015
lhumerus -22.8703 5.35482 83.953
lradius 9.49806
lwrist 5.59812
lhand -11.345 -5.55871
lfingers 7.12502
lthumb 14.6882 23.901
rfemur 18.2102 -6.4475 28.2209
rtibia 29.9315
rfoot -19.4062 -2.24924
rtoes -10.634
lfemur -15.4452 -0.788026 -15.9893
ltibia 25.4751
lfoot -0.134564 -5.47601
ltoes -16.2482
39
root 3.67747 16.9782 -2.34502 206.222 82.1114 -140.385
lowerback 10.7778 0.130232 5.10648
upperback 11.4208 1.22139 0.972182
thorax 6.10002 1.26743 -1.85754
lowerneck -0.483041 -9.78941 -6.24426
upperneck 7.00009 -13.9368 16.2109
head 3.75441 -6.5019 5.33602
rclavicle -1.60767e-014 -1.27222e-014
rhumerus -20.0964 6.83704 -81.5915
rradius 32.9277
rwrist -2.37925
rhand -24.8256 -0.379775
rfingers 7.12502
rthumb 1.68003 -30.3529
lclavicle -1.60767e-014 -1.27222e-014
lhumerus -22.6149 5.58245 83.8834
lradius 9.79711
lwrist 4.78033
lhand -11.2397 -5.65493
lfingers 7.12502
lthumb 14.7895 23.7974
rfemur 17.5585 -6.89234 27.6519
rtibia 32.1027
rfoot -19.227 -1.6429
rtoes -13.2795
lfemur -15.3291 -0.952469 -16.2035
ltibia 26.0457
lfoot 0.423906 -5.08862
ltoes -15.3422
40
root 3.77422 16.9664 -2.36833 205.697 82.2319 -140.806
lowerback 11.1773 0.0779513 4.97054
upperback 11.545 1.18622 0.960363
thorax 6.01045 1.25008 -1.79769
lowerneck -0.461761 -9.83597 -6.21521
upperneck 7.11819 -14.0151 16.2337
head 3.79483 -6.53359 5.33226
rclavicle -2.44754e-014 4.87022e-015
rhumerus -19.5967 7.00638 -81.4203
rradius 32.8044
rwrist -2.31601
rhand -24.8037 -0.376341
rfingers 7.12502
rthumb 1.70114 -30.3493
lclavicle -2.44754e-014 4.87022e-015
lhumerus -22.3557 5.81638 83.7655
lradius 10.1173
lwrist 3.90459
lhand -11.1081 -5.7797
lfingers 7.12502
lthumb 14.9163 23.6632
rfemur 16.7334 -7.32519 27.0993
rtibia 34.5535
rfoot -18.8228 -1.02085
rtoes -15.6814
lfemur -15.199 -1.0419 -16.3968
ltibia 26.5702
lfoot 0.928722 -4.68767
ltoes -14.6969
41
root 3.86535 16.9568 -2.39198 205.279 82.3267 -141.123
lowerback 11.6405 0.00828523 4.85355
upperback 11.6648 1.13299 0.977156
thorax 5.88088 1.22358 -1.71829
lowerneck -0.471113 -9.88811 -6.17407
upperneck 7.2335 -14.0956 16.1751
head 3.83305 -6.56853 5.29973
rclavicle 9.79014e-015 3.97569e-015
rhumerus -19.0639 7.2417 -81.2216
rradius 32.6707
rwrist -2.31312
rhand -24.8086 -0.443424
rfingers 7.12502
rthumb 1.69642 -30.4164
lclavicle 9.79014e-015 3.97569e-015
lhumerus -22.0213 4.73088 84.2159
lradius 10.4397
lwrist 4.46954
lhand -11.1879 -5.88944
lfingers 7.12502
lthumb 14.8395 23.5592
rfemur 15.6852 -7.72326 26.5968
rtibia 37.28
rfoot -18.1388 -0.425642
rtoes -17.5813
lfemur -15.0618 -1.12377 -16.5575
ltibia 27.0465
lfoot 1.28076 -4.32035
ltoes -14.6618
42
root 3.95161 16.947 -2.41523 204.58 82.4578 -141.717
lowerback 12.1623 -0.0618952 4.68971
upperback 11.7778 1.07936 0.976068
thorax 5.71233 1.19368 -1.6324
lowerneck -0.468301 -9.92438 -6.11332
upperneck 7.38427 -14.1551 16.0717
head 3.87252 -6.59307 5.25232
rclavicle 3.37934e-014 -4.57205e-015
rhumerus -18.5559 7.56629 -81.0491
rradius 32.5294
rwrist -2.3386
rhand -24.9214 -0.409169
rfingers 7.12502
rthumb 1.58749 -30.383
lclavicle 3.37934e-014 -4.57205e-015
lhumerus -21.6841 3.63476 84.6537
lradius 10.7845
lwrist 5.18886
lhand -11.3077 -5.97933
lfingers 7.12502
lthumb 14.724 23.4778
rfemur 14.4526 -8.09894 26.0423
rtibia 40.2358
rfoot -17.2546 0.199724
rtoes -18.8674
lfemur -14.9135 -1.16265 -16.7652
ltibia 27.5016
lfoot 1.51101 -3.99483
ltoes -14.8385
43
root 4.03497 16.9388 -2.44045 204.017 82.592 -142.193
lowerback 12.6833 -0.136345 4.56105
upperback 11.9011 1.02227 0.986978
thorax 5.55803 1.1652 -1.55209
lowerneck -0.504149 -9.96672 -6.0748
upperneck 7.50958 -14.2195 15.9599
head 3.91246 -6.62109 5.2035
rclavicle 6.41081e-015 1.68967e-015
rhumerus -18.0206 8.02786 -80.8481
rradius 32.4249
rwrist -2.52628
rhand -25.038 -0.434975
rfingers 7.12502
rthumb 1.47488 -30.4096
lclavicle 6.41081e-015 1.68967e-015
lhumerus -21.3869 2.03234 85.2392
lradius 11.2667
lwrist 6.45001
lhand -11.4599 -6.04669
lfingers 7.12502
lthumb 14.5774 23.4211
rfemur 13.0239 -8.46997 25.4982
rtibia 43.3916
rfoot -16.2373 0.763531
rtoes -19.8072
lfemur -14.7824 -1.1093 -16.967
ltibia 27.9371
lfoot 1.64301 -3.81355
ltoes -15.1551
